<svg width="1000" height="1000" xmlns="http://www.w3.org/2000/svg">
 <metadata>Svg Vector Icons : http://www.onlinewebfonts.com/icon</metadata>

 <g>
  <title>background</title>
  <rect fill="none" id="canvas_background" height="402" width="582" y="-1" x="-1"/>
 </g>
 <g>
  <title>Layer 1</title>
  <g id="svg_1">
   <g id="svg_2">
    <path fill="#999999" id="svg_3" d="m155.8,649.3l367.5,224l0,-746.6l-367.5,224l-97.2,0c-48.6,0 -48.6,49.8 -48.6,49.8l0,199.1c0,0 0,49.8 48.6,49.8l97.2,-0.1l0,0zm-99.1,-251.9l99,0l321,-177.4l0,560l-321,-181.2l-99,0l0,-201.4z"/>
    <path fill="#999999" id="svg_4" d="m570,681.5l0,51.8c0,0 140,-58 140,-233.3c0,-175.3 -140,-233.3 -140,-233.3l0,51.8c0,0 93.3,39.6 93.3,181.5s-93.3,181.5 -93.3,181.5z"/>
    <path fill="#999999" id="svg_5" d="m850,765.1l0,61.6c0,0 140,-67.2 140,-326.7c0,-259.5 -140,-326.7 -140,-326.7l0,60.6c0,0 93.3,51.5 93.3,266.1s-93.3,265.1 -93.3,265.1z"/>
    <path fill="#999999" id="svg_6" d="m710,720.9l0,59.1c0,0 140,-77 140,-280c0,-203 -140,-280 -140,-280l0,57.1c0,0 93.3,60.7 93.3,222.9c0,162.2 -93.3,220.9 -93.3,220.9z"/>
   </g>
   <g id="svg_7"/>
   <g id="svg_8"/>
   <g id="svg_9"/>
   <g id="svg_10"/>
   <g id="svg_11"/>
   <g id="svg_12"/>
   <g id="svg_13"/>
   <g id="svg_14"/>
   <g id="svg_15"/>
   <g id="svg_16"/>
   <g id="svg_17"/>
   <g id="svg_18"/>
   <g id="svg_19"/>
   <g id="svg_20"/>
   <g id="svg_21"/>
  </g>
 </g>
</svg>