<?xml version="1.0" encoding="utf-8"?>
<!-- Svg Vector Icons : http://www.onlinewebfonts.com/icon -->
<!DOCTYPE svg PUBLIC "-//W3C//DTD SVG 1.1//EN" "http://www.w3.org/Graphics/SVG/1.1/DTD/svg11.dtd">
<svg version="1.1" xmlns="http://www.w3.org/2000/svg" xmlns:xlink="http://www.w3.org/1999/xlink" x="0px" y="0px" viewBox="0 0 1000 1000" enable-background="new 0 0 1000 1000" xml:space="preserve">
<metadata> Svg Vector Icons : http://www.onlinewebfonts.com/icon </metadata>
<g><g><path d="M155.8,649.3l367.5,224V126.7l-367.5,224H58.6C10,350.7,10,400.5,10,400.5v199.1c0,0,0,49.8,48.6,49.8L155.8,649.3L155.8,649.3z M56.7,397.4h99l321-177.4v560l-321-181.2h-99V397.4z"/><path d="M570,681.5v51.8c0,0,140-58,140-233.3c0-175.3-140-233.3-140-233.3v51.8c0,0,93.3,39.6,93.3,181.5S570,681.5,570,681.5z"/><path d="M850,765.1v61.6c0,0,140-67.2,140-326.7c0-259.5-140-326.7-140-326.7v60.6c0,0,93.3,51.5,93.3,266.1S850,765.1,850,765.1z"/><path d="M710,720.9V780c0,0,140-77,140-280c0-203-140-280-140-280v57.1c0,0,93.3,60.7,93.3,222.9C803.3,662.2,710,720.9,710,720.9z"/></g><g></g><g></g><g></g><g></g><g></g><g></g><g></g><g></g><g></g><g></g><g></g><g></g><g></g><g></g><g></g></g>
</svg>